<svg xmlns="http://www.w3.org/2000/svg" xmlns:xlink="http://www.w3.org/1999/xlink" width="500" zoomAndPan="magnify" viewBox="0 0 375 374.999991" height="500" preserveAspectRatio="xMidYMid meet" version="1.0"><defs><clipPath id="55581d38c6"><path d="M 60.140625 82.574219 L 320.414062 82.574219 L 320.414062 357 L 60.140625 357 Z M 60.140625 82.574219 " clip-rule="nonzero"/></clipPath><clipPath id="7eda759623"><path d="M 190.277344 82.574219 C 118.402344 82.574219 60.140625 143.902344 60.140625 219.554688 C 60.140625 295.207031 118.402344 356.539062 190.277344 356.539062 C 262.148438 356.539062 320.414062 295.207031 320.414062 219.554688 C 320.414062 143.902344 262.148438 82.574219 190.277344 82.574219 Z M 190.277344 82.574219 " clip-rule="nonzero"/></clipPath><clipPath id="e3a828471b"><path d="M 155.203125 26.1875 L 199.601562 26.1875 L 199.601562 142.386719 L 155.203125 142.386719 Z M 155.203125 26.1875 " clip-rule="nonzero"/></clipPath><clipPath id="5571925249"><path d="M 172.453125 26.1875 L 182.351562 26.1875 C 191.875 26.1875 199.601562 33.914062 199.601562 43.4375 L 199.601562 124.996094 C 199.601562 134.523438 191.875 142.246094 182.351562 142.246094 L 172.453125 142.246094 C 162.925781 142.246094 155.203125 134.523438 155.203125 124.996094 L 155.203125 43.4375 C 155.203125 33.914062 162.925781 26.1875 172.453125 26.1875 Z M 172.453125 26.1875 " clip-rule="nonzero"/></clipPath><clipPath id="ac4b307b6a"><path d="M 182.113281 69.304688 L 208.648438 69.304688 L 208.648438 95.84375 L 182.113281 95.84375 Z M 182.113281 69.304688 " clip-rule="nonzero"/></clipPath><clipPath id="a8171751db"><path d="M 195.382812 69.304688 C 188.054688 69.304688 182.113281 75.246094 182.113281 82.574219 C 182.113281 89.902344 188.054688 95.84375 195.382812 95.84375 C 202.710938 95.84375 208.648438 89.902344 208.648438 82.574219 C 208.648438 75.246094 202.710938 69.304688 195.382812 69.304688 Z M 195.382812 69.304688 " clip-rule="nonzero"/></clipPath><clipPath id="b6a2385477"><path d="M 167.085938 20.804688 L 184.714844 20.804688 L 184.714844 38.433594 L 167.085938 38.433594 Z M 167.085938 20.804688 " clip-rule="nonzero"/></clipPath><clipPath id="4aeb940f11"><path d="M 175.898438 20.804688 C 171.03125 20.804688 167.085938 24.75 167.085938 29.617188 C 167.085938 34.488281 171.03125 38.433594 175.898438 38.433594 C 180.769531 38.433594 184.714844 34.488281 184.714844 29.617188 C 184.714844 24.75 180.769531 20.804688 175.898438 20.804688 Z M 175.898438 20.804688 " clip-rule="nonzero"/></clipPath><clipPath id="392ac1e304"><path d="M 171.164062 17.375 L 188.792969 17.375 L 188.792969 35.003906 L 171.164062 35.003906 Z M 171.164062 17.375 " clip-rule="nonzero"/></clipPath><clipPath id="605f0cbaa6"><path d="M 179.980469 17.375 C 175.109375 17.375 171.164062 21.320312 171.164062 26.1875 C 171.164062 31.058594 175.109375 35.003906 179.980469 35.003906 C 184.847656 35.003906 188.792969 31.058594 188.792969 26.1875 C 188.792969 21.320312 184.847656 17.375 179.980469 17.375 Z M 179.980469 17.375 " clip-rule="nonzero"/></clipPath><clipPath id="e1c5ae0e65"><path d="M 142 11 L 210 11 L 210 123 L 142 123 Z M 142 11 " clip-rule="nonzero"/></clipPath><clipPath id="5fa27ca314"><path d="M 152.207031 5.976562 L 218.953125 17.703125 L 199.574219 127.992188 L 132.828125 116.265625 Z M 152.207031 5.976562 " clip-rule="nonzero"/></clipPath><clipPath id="265645ac83"><path d="M 185.578125 11.839844 L 209.273438 72.796875 L 166.21875 122.023438 L 142.527344 61.070312 Z M 185.578125 11.839844 " clip-rule="nonzero"/></clipPath><clipPath id="c308728f6f"><path d="M 173.300781 15.722656 L 190.929688 15.722656 L 190.929688 33.355469 L 173.300781 33.355469 Z M 173.300781 15.722656 " clip-rule="nonzero"/></clipPath><clipPath id="0d4f950965"><path d="M 182.113281 15.722656 C 177.246094 15.722656 173.300781 19.671875 173.300781 24.539062 C 173.300781 29.40625 177.246094 33.355469 182.113281 33.355469 C 186.980469 33.355469 190.929688 29.40625 190.929688 24.539062 C 190.929688 19.671875 186.980469 15.722656 182.113281 15.722656 Z M 182.113281 15.722656 " clip-rule="nonzero"/></clipPath><clipPath id="4fd0fe5d87"><path d="M 177 12 L 187 12 L 187 21 L 177 21 Z M 177 12 " clip-rule="nonzero"/></clipPath><clipPath id="de11c1258c"><path d="M 186.703125 15.9375 L 180.113281 20.960938 L 177.1875 17.121094 L 183.78125 12.101562 Z M 186.703125 15.9375 " clip-rule="nonzero"/></clipPath><clipPath id="8e82c08f65"><path d="M 181 11 L 188 11 L 188 19 L 181 19 Z M 181 11 " clip-rule="nonzero"/></clipPath><clipPath id="1c999d34c6"><path d="M 187.5 16.390625 L 184.128906 18.03125 L 181.863281 13.382812 L 185.238281 11.742188 Z M 187.5 16.390625 " clip-rule="nonzero"/></clipPath><clipPath id="0a71d03454"><path d="M 47.039062 11.523438 L 328 11.523438 L 328 363.214844 L 47.039062 363.214844 Z M 47.039062 11.523438 " clip-rule="nonzero"/></clipPath><clipPath id="e70cf65f3e"><path d="M 131.25 131.25 L 150.109375 131.25 L 150.109375 150.109375 L 131.25 150.109375 Z M 131.25 131.25 " clip-rule="nonzero"/></clipPath><clipPath id="cd10a915c7"><path d="M 140.679688 131.25 C 135.472656 131.25 131.25 135.472656 131.25 140.679688 C 131.25 145.886719 135.472656 150.109375 140.679688 150.109375 C 145.886719 150.109375 150.109375 145.886719 150.109375 140.679688 C 150.109375 135.472656 145.886719 131.25 140.679688 131.25 Z M 140.679688 131.25 " clip-rule="nonzero"/></clipPath></defs><g clip-path="url(#55581d38c6)"><g clip-path="url(#7eda759623)"><path fill="#ffffff" d="M 60.140625 82.574219 L 320.414062 82.574219 L 320.414062 356.066406 L 60.140625 356.066406 Z M 60.140625 82.574219 " fill-opacity="1" fill-rule="nonzero"/></g></g><g clip-path="url(#e3a828471b)"><g clip-path="url(#5571925249)"><path fill="#ffffff" d="M 155.203125 26.1875 L 199.601562 26.1875 L 199.601562 142.210938 L 155.203125 142.210938 Z M 155.203125 26.1875 " fill-opacity="1" fill-rule="nonzero"/></g></g><g clip-path="url(#ac4b307b6a)"><g clip-path="url(#a8171751db)"><path fill="#ffffff" d="M 182.113281 69.304688 L 208.648438 69.304688 L 208.648438 95.84375 L 182.113281 95.84375 Z M 182.113281 69.304688 " fill-opacity="1" fill-rule="nonzero"/></g></g><g clip-path="url(#b6a2385477)"><g clip-path="url(#4aeb940f11)"><path fill="#ffffff" d="M 167.085938 20.804688 L 184.714844 20.804688 L 184.714844 38.433594 L 167.085938 38.433594 Z M 167.085938 20.804688 " fill-opacity="1" fill-rule="nonzero"/></g></g><g clip-path="url(#392ac1e304)"><g clip-path="url(#605f0cbaa6)"><path fill="#ffffff" d="M 171.164062 17.375 L 188.792969 17.375 L 188.792969 35.003906 L 171.164062 35.003906 Z M 171.164062 17.375 " fill-opacity="1" fill-rule="nonzero"/></g></g><g clip-path="url(#e1c5ae0e65)"><g clip-path="url(#5fa27ca314)"><g clip-path="url(#265645ac83)"><path fill="#ffffff" d="M 152.207031 5.976562 L 218.953125 17.703125 L 199.574219 127.992188 L 132.828125 116.265625 Z M 152.207031 5.976562 " fill-opacity="1" fill-rule="nonzero"/></g></g></g><g clip-path="url(#c308728f6f)"><g clip-path="url(#0d4f950965)"><path fill="#ffffff" d="M 173.300781 15.722656 L 190.929688 15.722656 L 190.929688 33.355469 L 173.300781 33.355469 Z M 173.300781 15.722656 " fill-opacity="1" fill-rule="nonzero"/></g></g><g clip-path="url(#4fd0fe5d87)"><g clip-path="url(#de11c1258c)"><path fill="#ffffff" d="M 186.703125 15.9375 L 180.105469 20.964844 L 177.183594 17.125 L 183.78125 12.101562 Z M 186.703125 15.9375 " fill-opacity="1" fill-rule="nonzero"/></g></g><g clip-path="url(#8e82c08f65)"><g clip-path="url(#1c999d34c6)"><path fill="#ffffff" d="M 187.5 16.390625 L 184.128906 18.03125 L 181.863281 13.382812 L 185.238281 11.742188 Z M 187.5 16.390625 " fill-opacity="1" fill-rule="nonzero"/></g></g><g clip-path="url(#0a71d03454)"><path fill="#0a66c2" d="M 185.386719 11.570312 C 185.386719 11.570312 214.382812 73.496094 241.894531 93.410156 C 292.351562 114.664062 327.960938 164.628906 327.960938 223.035156 C 327.960938 300.65625 265.046875 363.425781 187.359375 363.425781 C 109.949219 363.425781 47.039062 300.65625 47.039062 223.035156 C 47.039062 166.667969 80.113281 118.042969 128.035156 95.59375 C 128.035156 95.59375 130.710938 49.710938 177.507812 16.777344 C 156.605469 33.808594 152.382812 67.726562 155.199219 90.667969 L 155.199219 91.300781 L 155.339844 91.652344 L 155.339844 92.636719 L 155.480469 92.777344 L 155.480469 93.761719 L 155.621094 93.902344 L 155.621094 94.679688 L 155.761719 94.820312 L 155.761719 95.453125 L 155.902344 95.59375 L 155.902344 96.226562 L 156.042969 96.367188 L 156.042969 97 L 156.394531 97.984375 L 156.394531 98.265625 L 156.535156 98.757812 L 156.535156 99.042969 L 156.675781 99.183594 L 156.675781 99.675781 L 156.816406 99.816406 L 156.957031 100.519531 L 156.957031 100.941406 L 157.097656 101.082031 L 157.097656 101.363281 L 157.238281 101.503906 L 157.238281 101.925781 L 157.378906 102.277344 L 157.519531 102.417969 L 157.519531 102.558594 L 157.871094 103.542969 C 159.914062 109.597656 163.082031 116.84375 166.667969 125.007812 C 175.605469 145.910156 186.9375 167.863281 183.910156 188.625 C 180.671875 209.382812 155.058594 209.382812 143.585938 197.914062 C 132.117188 186.441406 143.09375 150.695312 144.082031 140.699219 C 145.277344 128.878906 137.183594 119.941406 126.207031 115.367188 C 128.738281 126.132812 118.746094 145.414062 110.371094 159.277344 C 96.507812 182.078125 88.066406 192 88.066406 222.050781 C 88.066406 269.621094 121.492188 309.308594 166.175781 318.878906 L 187.078125 353.152344 L 208.1875 318.878906 C 252.875 309.238281 286.300781 269.621094 286.300781 222.050781 C 286.300781 205.863281 282.429688 190.664062 275.675781 177.152344 C 245.695312 121.066406 174.480469 81.097656 185.386719 11.570312 Z M 232.675781 223.527344 C 225.429688 223.527344 219.660156 229.4375 219.660156 236.546875 C 219.660156 243.792969 225.429688 249.707031 232.675781 249.707031 C 239.925781 249.707031 245.835938 243.792969 245.835938 236.546875 C 245.835938 229.4375 239.925781 223.527344 232.675781 223.527344 Z M 187.429688 223.527344 C 180.320312 223.527344 174.410156 229.4375 174.410156 236.546875 C 174.410156 243.792969 180.320312 249.707031 187.429688 249.707031 C 194.675781 249.707031 200.589844 243.792969 200.589844 236.546875 C 200.589844 229.4375 194.675781 223.527344 187.429688 223.527344 Z M 142.390625 223.527344 C 135.144531 223.527344 129.230469 229.4375 129.230469 236.546875 C 129.230469 243.792969 135.144531 249.707031 142.390625 249.707031 C 149.5 249.707031 155.410156 243.792969 155.410156 236.546875 C 155.410156 229.4375 149.5 223.527344 142.390625 223.527344 Z M 142.390625 223.527344 " fill-opacity="1" fill-rule="nonzero"/></g><g clip-path="url(#e70cf65f3e)"><g clip-path="url(#cd10a915c7)"><path fill="#0a66c2" d="M 131.25 131.25 L 150.109375 131.25 L 150.109375 150.109375 L 131.25 150.109375 Z M 131.25 131.25 " fill-opacity="1" fill-rule="nonzero"/></g></g></svg>